<svg width="150" height="50" viewBox="0 0 150 50" fill="none" xmlns="http://www.w3.org/2000/svg">
<path d="M145 0.625H5C2.58375 0.625 0.625 2.58375 0.625 5V45C0.625 47.4162 2.58375 49.375 5 49.375H145C147.416 49.375 149.375 47.4162 149.375 45V5C149.375 2.58375 147.416 0.625 145 0.625Z" fill="#221F1F" stroke="#4D4B4B"/>
<path d="M33.5854 24.7053C33.5522 20.9148 36.6049 19.071 36.7447 18.9848C35.0156 16.3937 32.3356 16.0397 31.3947 16.0122C29.1444 15.7692 26.9614 17.3959 25.8146 17.3959C24.6449 17.3959 22.8789 16.0357 20.9769 16.0749C18.5281 16.114 16.2371 17.571 14.981 19.8328C12.3886 24.4467 14.3224 31.2255 16.8067 34.9548C18.0489 36.7814 19.5021 38.8198 21.4015 38.7479C23.2616 38.6695 23.9557 37.5302 26.1997 37.5302C28.4235 37.5302 29.0757 38.7479 31.0134 38.7022C33.0094 38.6695 34.2655 36.8677 35.4645 35.0253C36.8999 32.932 37.4771 30.8702 37.5 30.7643C37.4516 30.7499 33.6235 29.2473 33.5854 24.7053Z" fill="white"/>
<path d="M29.9237 13.5585C30.9244 12.2727 31.6084 10.5244 31.4177 8.75C29.9709 8.81534 28.1604 9.77834 27.1179 11.0366C26.196 12.1447 25.3722 13.9596 25.5845 15.6674C27.2106 15.7915 28.88 14.8246 29.9237 13.5585Z" fill="white"/>
<path d="M62.8512 37.6961H60.2962L58.8962 33.2986H54.0312L52.6975 37.6961H50.21L55.03 22.7249H58.0062L62.8512 37.6961ZM58.475 31.4536L57.2087 27.5436C57.075 27.1449 56.8237 26.2036 56.4537 24.7236H56.4087C56.2612 25.3599 56.0237 26.3011 55.6975 27.5436L54.455 31.4536H58.475Z" fill="white"/>
<path d="M75.2449 32.1651C75.2449 34.0013 74.7486 35.4526 73.7561 36.5176C72.8674 37.4663 71.7636 37.9401 70.4461 37.9401C69.0236 37.9401 68.0024 37.4288 67.3811 36.4076H67.3361V42.0938H64.9374V30.4538C64.9374 29.3001 64.9074 28.1151 64.8486 26.9001H66.9586L67.0924 28.6113H67.1374C67.9374 27.3226 69.1511 26.6788 70.7799 26.6788C72.0536 26.6788 73.1161 27.1813 73.9674 28.1888C74.8199 29.1963 75.2449 30.5213 75.2449 32.1651ZM72.8011 32.2526C72.8011 31.2013 72.5649 30.3351 72.0899 29.6538C71.5711 28.9426 70.8749 28.5876 70.0024 28.5876C69.4111 28.5876 68.8724 28.7851 68.3924 29.1763C67.9111 29.5701 67.5961 30.0838 67.4486 30.7213C67.3749 31.0188 67.3374 31.2613 67.3374 31.4526V33.2526C67.3374 34.0376 67.5786 34.7001 68.0599 35.2413C68.5411 35.7826 69.1674 36.0526 69.9361 36.0526C70.8399 36.0526 71.5424 35.7038 72.0461 35.0088C72.5486 34.3113 72.8011 33.3938 72.8011 32.2526Z" fill="white"/>
<path d="M87.6611 32.1651C87.6611 34.0013 87.1649 35.4526 86.1711 36.5176C85.2836 37.4663 84.1799 37.9401 82.8624 37.9401C81.4399 37.9401 80.4186 37.4288 79.7974 36.4076H79.7524V42.0938H77.3536V30.4538C77.3536 29.3001 77.3236 28.1151 77.2649 26.9001H79.3749L79.5086 28.6113H79.5536C80.3524 27.3226 81.5661 26.6788 83.1961 26.6788C84.4686 26.6788 85.5311 27.1813 86.3849 28.1888C87.2349 29.1963 87.6611 30.5213 87.6611 32.1651ZM85.2174 32.2526C85.2174 31.2013 84.9799 30.3351 84.5049 29.6538C83.9861 28.9426 83.2924 28.5876 82.4174 28.5876C81.8249 28.5876 81.2874 28.7851 80.8061 29.1763C80.3249 29.5701 80.0111 30.0838 79.8636 30.7213C79.7899 31.0188 79.7524 31.2613 79.7524 31.4526V33.2526C79.7524 34.0376 79.9936 34.7001 80.4724 35.2413C80.9536 35.7813 81.5799 36.0526 82.3511 36.0526C83.2549 36.0526 83.9574 35.7038 84.4611 35.0088C84.9661 34.3113 85.2174 33.3938 85.2174 32.2526Z" fill="white"/>
<path d="M101.544 33.4971C101.544 34.7709 101.101 35.8071 100.214 36.6071C99.2386 37.4809 97.8799 37.9184 96.1349 37.9184C94.5235 37.9184 93.2324 37.6084 92.2549 36.9859L92.8111 34.9871C93.8636 35.6234 95.0199 35.9434 96.2786 35.9434C97.1824 35.9434 97.8849 35.7384 98.3899 35.3309C98.8924 34.9234 99.1436 34.3771 99.1436 33.6946C99.1436 33.0871 98.9361 32.5746 98.5211 32.1596C98.1086 31.7446 97.4186 31.3584 96.4561 31.0021C93.8349 30.0246 92.5249 28.5921 92.5249 26.7096C92.5249 25.4784 92.9836 24.4696 93.9024 23.6846C94.8186 22.8984 96.0399 22.5059 97.5674 22.5059C98.9299 22.5059 100.061 22.7434 100.965 23.2171L100.365 25.1721C99.5211 24.7134 98.5674 24.4834 97.4999 24.4834C96.6561 24.4834 95.9974 24.6921 95.5249 25.1059C95.1261 25.4759 94.9249 25.9271 94.9249 26.4609C94.9249 27.0521 95.1536 27.5421 95.6124 27.9271C96.0124 28.2821 96.7374 28.6671 97.7899 29.0821C99.0774 29.6009 100.024 30.2071 100.632 30.9021C101.241 31.5946 101.544 32.4621 101.544 33.4971Z" fill="white"/>
<path d="M109.474 28.6997H106.83V33.941C106.83 35.2735 107.296 35.9397 108.23 35.9397C108.659 35.9397 109.014 35.9022 109.295 35.8285L109.361 37.6497C108.889 37.826 108.266 37.9147 107.496 37.9147C106.549 37.9147 105.809 37.626 105.275 37.0485C104.743 36.4697 104.475 35.501 104.475 34.1385V28.6972H102.9V26.8972H104.475V24.921L106.831 24.2097V26.8972H109.475L109.474 28.6997Z" fill="white"/>
<path d="M121.403 32.2088C121.403 33.8688 120.928 35.2301 119.98 36.2963C118.986 37.3926 117.669 37.9401 116.025 37.9401C114.441 37.9401 113.18 37.4151 112.24 36.3638C111.3 35.3126 110.829 33.9863 110.829 32.3876C110.829 30.7151 111.313 29.3451 112.284 28.2788C113.253 27.2126 114.56 26.6788 116.204 26.6788C117.788 26.6788 119.063 27.2038 120.024 28.2563C120.944 29.2776 121.403 30.5951 121.403 32.2088ZM118.914 32.2863C118.914 31.2901 118.701 30.4363 118.27 29.7251C117.768 28.8638 117.049 28.4338 116.116 28.4338C115.153 28.4338 114.42 28.8651 113.916 29.7251C113.485 30.4388 113.273 31.3063 113.273 32.3313C113.273 33.3263 113.485 34.1813 113.916 34.8913C114.435 35.7526 115.16 36.1826 116.094 36.1826C117.01 36.1826 117.729 35.7438 118.248 34.8688C118.691 34.1438 118.914 33.2813 118.914 32.2863Z" fill="white"/>
<path d="M129.199 29.0097C128.961 28.9659 128.709 28.9434 128.443 28.9434C127.599 28.9434 126.946 29.2622 126.488 29.8997C126.088 30.4622 125.888 31.1734 125.888 32.0309V37.6947H123.49L123.513 30.2984C123.513 29.0547 123.483 27.9209 123.423 26.8997H125.511L125.599 28.9647H125.665C125.918 28.2547 126.318 27.6834 126.864 27.2547C127.398 26.8684 127.975 26.6759 128.598 26.6759C128.819 26.6759 129.02 26.6922 129.198 26.7197C129.199 26.7222 129.199 29.0097 129.199 29.0097Z" fill="white"/>
<path d="M139.925 31.787C139.925 32.217 139.897 32.5795 139.837 32.8745H132.642C132.67 33.9407 133.019 34.757 133.686 35.3195C134.292 35.822 135.076 36.0745 136.04 36.0745C137.105 36.0745 138.077 35.9045 138.951 35.5632L139.327 37.2282C138.306 37.6732 137.1 37.8957 135.709 37.8957C134.035 37.8957 132.721 37.4032 131.765 36.4182C130.811 35.4332 130.332 34.112 130.332 32.4532C130.332 30.8257 130.776 29.4695 131.666 28.3882C132.597 27.2345 133.856 26.657 135.441 26.657C136.997 26.657 138.175 27.2345 138.975 28.3882C139.607 29.3057 139.925 30.4395 139.925 31.787ZM137.639 31.1645C137.655 30.4532 137.497 29.8395 137.172 29.3207C136.757 28.6532 136.12 28.3207 135.261 28.3207C134.477 28.3207 133.839 28.6457 133.352 29.2982C132.952 29.817 132.716 30.4395 132.642 31.1632L137.639 31.1645Z" fill="white"/>
<path d="M50.4285 16.4762L51.4447 16.2125C51.5216 16.6044 51.7266 16.9962 52.0598 17.3881C52.3968 17.7799 52.8417 17.9759 53.3947 17.9759C53.9587 17.9759 54.4036 17.8311 54.7296 17.5419C55.0555 17.2526 55.2185 16.9029 55.2185 16.4926C55.2185 16.0496 55.0463 15.698 54.7021 15.438C54.3578 15.1744 53.8891 15.0425 53.2958 15.0425H52.785V14.1141C53.2757 14.1141 53.6511 14.0866 53.9111 14.0317C54.1711 13.9731 54.4 13.8285 54.5977 13.5977C54.7992 13.3634 54.8998 13.0979 54.8998 12.8012C54.8998 12.4497 54.7626 12.1439 54.4878 11.8839C54.2168 11.6239 53.8488 11.4939 53.3837 11.4939C52.9772 11.4939 52.6293 11.5964 52.3401 11.8015C52.0545 12.0029 51.8567 12.2721 51.7468 12.609C51.637 12.9422 51.582 13.1912 51.582 13.3561L50.5602 13.1254C50.813 11.4152 51.7577 10.5601 53.3947 10.5601C54.1821 10.5601 54.8065 10.7798 55.268 11.2192C55.7293 11.655 55.9601 12.1659 55.9601 12.7519C55.9601 13.5026 55.6048 14.0849 54.8943 14.4986C55.3046 14.6122 55.647 14.8447 55.9216 15.1962C56.2 15.5442 56.3391 15.9616 56.3391 16.4487C56.3391 17.1409 56.07 17.7214 55.5316 18.1901C54.997 18.6551 54.2865 18.8877 53.4002 18.8877C51.8768 18.8877 50.8862 18.0839 50.4285 16.4762ZM61.3488 18.0307C60.9826 18.342 60.6292 18.5617 60.2887 18.69C59.9517 18.8181 59.5892 18.8822 59.201 18.8822C58.5601 18.8822 58.0676 18.7266 57.7233 18.4152C57.3791 18.1004 57.207 17.6994 57.207 17.2122C57.207 16.9266 57.2711 16.6666 57.3992 16.4322C57.5311 16.1942 57.7013 16.0037 57.9101 15.861C58.1225 15.7181 58.3606 15.6101 58.6242 15.5369C58.8183 15.4856 59.1113 15.4361 59.5031 15.3885C60.3015 15.2934 60.8892 15.1799 61.2665 15.048C61.2701 14.9125 61.272 14.8264 61.272 14.7897C61.272 14.387 61.1786 14.1031 60.9918 13.9384C60.7391 13.715 60.3637 13.6032 59.8657 13.6032C59.4006 13.6032 59.0563 13.6856 58.833 13.8505C58.6132 14.0116 58.4503 14.2991 58.3441 14.7129L57.3773 14.5811C57.4652 14.1672 57.6098 13.834 57.8112 13.5812C58.0127 13.325 58.3038 13.129 58.6847 12.9935C59.0655 12.8544 59.5068 12.7847 60.0085 12.7847C60.5066 12.7847 60.9112 12.8434 61.2225 12.9606C61.5338 13.0777 61.7627 13.2261 61.9091 13.4055C62.0556 13.5812 62.1582 13.8047 62.2167 14.0757C62.2497 14.2441 62.2662 14.5481 62.2662 14.9875V16.3059C62.2662 17.2251 62.2863 17.8074 62.3266 18.0527C62.3706 18.2945 62.4548 18.527 62.5793 18.7504H61.5466C61.4441 18.5452 61.3781 18.3054 61.3488 18.0307ZM61.2665 15.8225C60.9076 15.969 60.3692 16.0935 59.6515 16.196C59.245 16.2546 58.9575 16.3206 58.789 16.3937C58.6206 16.467 58.4906 16.5751 58.399 16.7179C58.3075 16.8571 58.2617 17.0127 58.2617 17.1849C58.2617 17.4485 58.3606 17.6682 58.5583 17.844C58.7597 18.0197 59.0527 18.1076 59.4372 18.1076C59.8181 18.1076 60.1568 18.0252 60.4535 17.8605C60.7501 17.692 60.968 17.4631 61.1071 17.1739C61.2133 16.9505 61.2665 16.6209 61.2665 16.1851V15.8225ZM63.8098 12.9166H66.0895C66.6497 12.9166 67.0653 12.9642 67.3363 13.0595C67.6111 13.151 67.8455 13.3212 68.0395 13.5704C68.2372 13.8194 68.3361 14.1177 68.3361 14.4657C68.3361 14.744 68.2776 14.9875 68.1603 15.1962C68.0468 15.4014 67.8747 15.5735 67.644 15.7126C67.9187 15.8042 68.1457 15.9764 68.3252 16.229C68.5082 16.478 68.5998 16.7746 68.5998 17.1189C68.5632 17.6719 68.3655 18.082 68.0066 18.3494C67.6477 18.6167 67.1258 18.7504 66.441 18.7504H63.8098V12.9166ZM64.7986 15.3721H65.8532C66.2743 15.3721 66.5637 15.3501 66.7212 15.3061C66.8786 15.2622 67.0196 15.1744 67.1441 15.0425C67.2686 14.907 67.3308 14.7459 67.3308 14.5591C67.3308 14.2515 67.2211 14.0372 67.0013 13.9164C66.7852 13.7955 66.4136 13.7351 65.8862 13.7351H64.7986V15.3721ZM64.7986 17.9374H66.1005C66.6607 17.9374 67.0452 17.8732 67.254 17.7451C67.4627 17.6132 67.5726 17.3881 67.5836 17.0695C67.5836 16.8827 67.5232 16.7106 67.4023 16.5531C67.2815 16.392 67.124 16.2912 66.9298 16.251C66.7358 16.207 66.4245 16.1851 65.9961 16.1851H64.7986V17.9374ZM73.4557 18.0307C73.0896 18.342 72.7362 18.5617 72.3956 18.69C72.0587 18.8181 71.6961 18.8822 71.308 18.8822C70.6671 18.8822 70.1745 18.7266 69.8303 18.4152C69.4861 18.1004 69.314 17.6994 69.314 17.2122C69.314 16.9266 69.378 16.6666 69.5062 16.4322C69.638 16.1942 69.8083 16.0037 70.0171 15.861C70.2295 15.7181 70.4675 15.6101 70.7312 15.5369C70.9252 15.4856 71.2182 15.4361 71.6101 15.3885C72.4085 15.2934 72.9962 15.1799 73.3733 15.048C73.3771 14.9125 73.3788 14.8264 73.3788 14.7897C73.3788 14.387 73.2855 14.1031 73.0987 13.9384C72.8461 13.715 72.4707 13.6032 71.9726 13.6032C71.5076 13.6032 71.1633 13.6856 70.94 13.8505C70.7202 14.0116 70.5572 14.2991 70.451 14.7129L69.4842 14.5811C69.5721 14.1672 69.7167 13.834 69.9182 13.5812C70.1196 13.325 70.4107 13.129 70.7916 12.9935C71.1725 12.8544 71.6137 12.7847 72.1155 12.7847C72.6135 12.7847 73.0182 12.8434 73.3295 12.9606C73.6407 13.0777 73.8696 13.2261 74.0161 13.4055C74.1626 13.5812 74.2651 13.8047 74.3237 14.0757C74.3567 14.2441 74.3731 14.5481 74.3731 14.9875V16.3059C74.3731 17.2251 74.3932 17.8074 74.4336 18.0527C74.4775 18.2945 74.5617 18.527 74.6862 18.7504H73.6536C73.551 18.5452 73.4851 18.3054 73.4557 18.0307ZM73.3733 15.8225C73.0145 15.969 72.4762 16.0935 71.7583 16.196C71.3518 16.2546 71.0645 16.3206 70.896 16.3937C70.7275 16.467 70.5975 16.5751 70.506 16.7179C70.4143 16.8571 70.3686 17.0127 70.3686 17.1849C70.3686 17.4485 70.4675 17.6682 70.6652 17.844C70.8667 18.0197 71.1596 18.1076 71.5442 18.1076C71.925 18.1076 72.2637 18.0252 72.5603 17.8605C72.857 17.692 73.075 17.4631 73.2141 17.1739C73.3202 16.9505 73.3733 16.6209 73.3733 16.1851V15.8225ZM75.9167 12.9166H76.9055V15.3446H79.6466V12.9166H80.6353V18.7504H79.6466V16.1631H76.9055V18.7504H75.9167V12.9166ZM81.5966 12.9166H86.3372V13.7351H84.4586V18.7504H83.4753V13.7351H81.5966V12.9166ZM90.957 18.0307C90.5908 18.342 90.2373 18.5617 89.8968 18.69C89.5598 18.8181 89.1973 18.8822 88.8092 18.8822C88.1683 18.8822 87.6757 18.7266 87.3315 18.4152C86.9872 18.1004 86.8151 17.6994 86.8151 17.2122C86.8151 16.9266 86.8792 16.6666 87.0075 16.4322C87.1392 16.1942 87.3096 16.0037 87.5182 15.861C87.7307 15.7181 87.9687 15.6101 88.2323 15.5369C88.4265 15.4856 88.7195 15.4361 89.1113 15.3885C89.9096 15.2934 90.4973 15.1799 90.8746 15.048C90.8782 14.9125 90.8801 14.8264 90.8801 14.7897C90.8801 14.387 90.7867 14.1031 90.6 13.9384C90.3472 13.715 89.9718 13.6032 89.4738 13.6032C89.0087 13.6032 88.6645 13.6856 88.4411 13.8505C88.2213 14.0116 88.0585 14.2991 87.9522 14.7129L86.9855 14.5811C87.0733 14.1672 87.218 13.834 87.4193 13.5812C87.6208 13.325 87.912 13.129 88.2928 12.9935C88.6737 12.8544 89.115 12.7847 89.6167 12.7847C90.1147 12.7847 90.5193 12.8434 90.8307 12.9606C91.142 13.0777 91.3708 13.2261 91.5173 13.4055C91.6638 13.5812 91.7663 13.8047 91.825 14.0757C91.8578 14.2441 91.8743 14.5481 91.8743 14.9875V16.3059C91.8743 17.2251 91.8945 17.8074 91.9348 18.0527C91.9787 18.2945 92.063 18.527 92.1875 18.7504H91.1547C91.0522 18.5452 90.9863 18.3054 90.957 18.0307ZM90.8746 15.8225C90.5157 15.969 89.9773 16.0935 89.2596 16.196C88.8531 16.2546 88.5656 16.3206 88.3972 16.3937C88.2287 16.467 88.0987 16.5751 88.0072 16.7179C87.9156 16.8571 87.8698 17.0127 87.8698 17.1849C87.8698 17.4485 87.9687 17.6682 88.1665 17.844C88.3678 18.0197 88.6608 18.1076 89.0453 18.1076C89.4262 18.1076 89.765 18.0252 90.0616 17.8605C90.3582 17.692 90.5761 17.4631 90.7153 17.1739C90.8215 16.9505 90.8746 16.6209 90.8746 16.1851V15.8225ZM96.9391 12.9166V15.438C97.254 15.438 97.4756 15.3776 97.6037 15.2567C97.7318 15.1359 97.9187 14.7842 98.164 14.202C98.3947 13.649 98.6016 13.2956 98.7847 13.1419C98.9642 12.9917 99.2498 12.9166 99.6417 12.9166H100.004V13.7351L99.7351 13.7296C99.4713 13.7296 99.303 13.7681 99.2297 13.845C99.1528 13.9255 99.0356 14.1654 98.8781 14.5646C98.7317 14.9455 98.5962 15.2091 98.4716 15.3556C98.3471 15.5021 98.1531 15.6357 97.8893 15.7566C98.3178 15.8701 98.7353 16.2656 99.1418 16.9431L100.229 18.7504H99.1418L98.0816 16.9431C97.8656 16.5769 97.677 16.337 97.5158 16.2235C97.3547 16.11 97.1625 16.0532 96.9391 16.0532V18.7504H95.9283V16.0532C95.7086 16.0532 95.5182 16.11 95.357 16.2235C95.1958 16.3334 95.0073 16.5732 94.7912 16.9431L93.7311 18.7504H92.6433L93.7256 16.9431C94.1357 16.2656 94.555 15.8701 94.9835 15.7566C94.6905 15.6211 94.4855 15.4746 94.3682 15.3171C94.2511 15.156 94.0753 14.7751 93.841 14.1746C93.7603 13.9731 93.6743 13.8486 93.5827 13.801C93.4875 13.7534 93.3465 13.7296 93.1597 13.7296C93.1121 13.7296 93.0151 13.7315 92.8686 13.7351V12.9166H93.006C93.3868 12.9166 93.6541 12.9405 93.808 12.988C93.9655 13.032 94.1046 13.129 94.2255 13.2791C94.35 13.4256 94.5111 13.7332 94.7088 14.202C94.9505 14.777 95.1336 15.1267 95.2581 15.2512C95.3863 15.3757 95.6097 15.438 95.9283 15.438V12.9166H96.9391ZM100.938 12.9166H101.927V17.3661L104.668 12.9166H105.734V18.7504H104.745V14.3284L102.004 18.7504H100.938V12.9166ZM106.689 12.9166H111.43V13.7351H109.551V18.7504H108.568V13.7351H106.689V12.9166ZM112.375 12.9166H113.364V17.3661L116.105 12.9166H117.17V18.7504H116.182V14.3284L113.44 18.7504H112.375V12.9166ZM121.796 12.9166H124.075C124.636 12.9166 125.051 12.9642 125.322 13.0595C125.597 13.151 125.831 13.3212 126.025 13.5704C126.224 13.8194 126.322 14.1177 126.322 14.4657C126.322 14.744 126.264 14.9875 126.146 15.1962C126.032 15.4014 125.86 15.5735 125.63 15.7126C125.905 15.8042 126.131 15.9764 126.311 16.229C126.494 16.478 126.586 16.7746 126.586 17.1189C126.549 17.6719 126.351 18.082 125.992 18.3494C125.634 18.6167 125.111 18.7504 124.427 18.7504H121.796V12.9166ZM122.784 15.3721H123.839C124.26 15.3721 124.549 15.3501 124.707 15.3061C124.864 15.2622 125.005 15.1744 125.13 15.0425C125.255 14.907 125.316 14.7459 125.316 14.5591C125.316 14.2515 125.207 14.0372 124.987 13.9164C124.771 13.7955 124.399 13.7351 123.872 13.7351H122.784V15.3721ZM122.784 17.9374H124.086C124.647 17.9374 125.031 17.8732 125.24 17.7451C125.449 17.6132 125.559 17.3881 125.57 17.0695C125.57 16.8827 125.509 16.7106 125.389 16.5531C125.267 16.392 125.11 16.2912 124.916 16.251C124.722 16.207 124.41 16.1851 123.982 16.1851H122.784V17.9374Z" fill="white"/>
</svg>
