<svg width="160" height="50" viewBox="0 0 160 50" fill="none" xmlns="http://www.w3.org/2000/svg">
<path d="M155 0.625H5C2.58375 0.625 0.625 2.58375 0.625 5V45C0.625 47.4163 2.58375 49.375 5 49.375H155C157.416 49.375 159.375 47.4163 159.375 45V5C159.375 2.58375 157.416 0.625 155 0.625Z" fill="#221F1F" stroke="#4D4B4B"/>
<path d="M14.2395 10.4395C13.912 10.7857 13.7183 11.3232 13.7183 12.0207V36.9007C13.7183 37.5982 13.912 38.1344 14.2395 38.4807L28.2608 24.4594L14.2395 10.4395Z" fill="#00E3FF"/>
<path d="M14.322 10.3578L14.2395 10.4398C14.267 10.4108 14.3058 10.3982 14.3345 10.3704L14.322 10.3578Z" fill="#00E3FF"/>
<path d="M14.3233 38.5633L14.3358 38.5507C14.3058 38.5242 14.267 38.5116 14.2395 38.4813L14.3233 38.5633Z" fill="#00E3FF"/>
<path d="M38.517 22.8375L33.012 19.71H33.0107L28.2607 24.46L33.0107 29.2125L32.9045 29.2737L33.0107 29.2137L38.5157 26.0862C40.0895 25.1925 40.0895 23.7312 38.517 22.8375Z" fill="#FFE000"/>
<path d="M28.2608 24.4595L14.2395 38.4807C14.267 38.5107 14.3058 38.5232 14.3358 38.5495C14.8608 39.0195 15.6645 39.0682 16.577 38.5495L32.9058 29.2732L33.012 29.212L28.2608 24.4595Z" fill="#FF3A44"/>
<path d="M28.2608 24.4611L33.0108 19.7099L33.012 19.7086L16.577 10.3711C15.6645 9.85238 14.8583 9.90113 14.3345 10.3711C14.3058 10.3986 14.267 10.4111 14.2395 10.4399L28.2608 24.4611Z" fill="#00F076"/>
<path d="M70.0037 27.7919C67.3574 27.7919 65.2012 29.8031 65.2012 32.5769C65.2012 35.3319 67.3574 37.3619 70.0037 37.3619C72.6499 37.3619 74.8062 35.3319 74.8062 32.5769C74.8062 29.8044 72.6499 27.7919 70.0037 27.7919ZM70.0037 35.4769C68.5537 35.4769 67.3037 34.2806 67.3037 32.5769C67.3037 30.8556 68.5537 29.6769 70.0037 29.6769C71.4537 29.6769 72.7037 30.8544 72.7037 32.5769C72.7049 34.2806 71.4537 35.4769 70.0037 35.4769Z" fill="white"/>
<path d="M80.4812 27.7919C77.835 27.7919 75.6787 29.8031 75.6787 32.5769C75.6787 35.3319 77.835 37.3619 80.4812 37.3619C83.1275 37.3619 85.2837 35.3319 85.2837 32.5769C85.285 29.8044 83.1275 27.7919 80.4812 27.7919ZM80.4812 35.4769C79.0312 35.4769 77.7812 34.2806 77.7812 32.5769C77.7812 30.8556 79.0325 29.6769 80.4812 29.6769C81.93 29.6769 83.1812 30.8544 83.1812 32.5769C83.1825 34.2806 81.9312 35.4769 80.4812 35.4769Z" fill="white"/>
<path d="M126.231 23.0072H124.132V37.071H126.231V23.0072Z" fill="white"/>
<path d="M57.54 29.2612V31.29H62.3975C62.2525 32.4312 61.8725 33.265 61.2913 33.845C60.585 34.5512 59.4788 35.3312 57.54 35.3312C54.55 35.3312 52.2113 32.9212 52.2113 29.93C52.2113 26.9387 54.5488 24.5287 57.54 24.5287C59.1538 24.5287 60.3312 25.1638 61.2012 25.9787L62.6325 24.5475C61.4187 23.3875 59.805 22.5 57.54 22.5C53.4438 22.5 50 25.835 50 29.9312C50 34.0275 53.4438 37.3625 57.54 37.3625C59.7513 37.3625 61.4188 36.6375 62.7238 35.2787C64.065 33.9375 64.4825 32.0525 64.4825 30.53C64.4825 30.0587 64.4463 29.6237 64.3738 29.2612H57.54Z" fill="white"/>
<path d="M131.388 27.7667C129.868 27.7667 128.294 28.4367 127.643 29.9205L129.506 30.698C129.904 29.9205 130.646 29.6667 131.424 29.6667C132.509 29.6667 133.613 30.318 133.631 31.4755V31.6205C133.251 31.403 132.438 31.078 131.443 31.078C129.434 31.078 127.39 32.1817 127.39 34.2442C127.39 36.1255 129.036 37.338 130.883 37.338C132.294 37.338 133.071 36.7042 133.56 35.963H133.633V37.048H135.659V31.6555C135.658 29.1592 133.794 27.7667 131.388 27.7667ZM131.134 35.4742C130.446 35.4742 129.488 35.1305 129.488 34.2805C129.488 33.1955 130.681 32.7792 131.713 32.7792C132.635 32.7792 133.07 32.978 133.63 33.2492C133.469 34.5517 132.346 35.4742 131.134 35.4742Z" fill="white"/>
<path d="M140.634 34.1712H140.561L138.065 28.0737H135.804L139.549 36.5962L137.414 41.3362H139.602L145.375 28.0737H143.04L140.634 34.1712Z" fill="white"/>
<path d="M93.3438 28.8614H93.27C92.7988 28.3001 91.8925 27.7926 90.7513 27.7926C88.3588 27.7926 86.1663 29.8951 86.1663 32.5951C86.1663 35.2776 88.3588 37.3613 90.7513 37.3613C91.8925 37.3613 92.7988 36.8538 93.27 36.2738H93.3425V36.9626C93.3425 38.7926 92.3638 39.7713 90.7875 39.7713C89.5013 39.7713 88.7038 38.8476 88.3775 38.0676L86.5475 38.8288C87.0725 40.0976 88.4688 41.6563 90.7888 41.6563C93.2538 41.6563 95.3375 40.2063 95.3375 36.6726V28.0814H93.3438V28.8614ZM90.9313 35.4763C89.4813 35.4763 88.2675 34.2626 88.2675 32.5951C88.2675 30.9101 89.4825 29.6776 90.9313 29.6776C92.3625 29.6776 93.4863 30.9101 93.4863 32.5951C93.4875 34.2626 92.3638 35.4763 90.9313 35.4763Z" fill="white"/>
<path d="M118.36 23.0072H113.33V37.071H115.429V31.7422H118.36C120.688 31.7422 122.974 30.0572 122.974 27.3747C122.974 24.6922 120.688 23.0072 118.36 23.0072ZM118.415 29.7847H115.429V24.9635H118.414C119.984 24.9635 120.875 26.2635 120.875 27.3735C120.875 28.4647 119.984 29.7847 118.415 29.7847Z" fill="white"/>
<path d="M98.8886 23.0072H96.7861V37.071H98.8886V23.0072Z" fill="white"/>
<path d="M108.513 30.8369C108.114 29.7681 106.9 27.7919 104.416 27.7919C101.951 27.7919 99.9038 29.7306 99.9038 32.5769C99.9038 35.2594 101.934 37.3619 104.653 37.3619C106.845 37.3619 108.114 36.0206 108.64 35.2419L107.009 34.1544C106.465 34.9519 105.723 35.4769 104.653 35.4769C103.583 35.4769 102.823 34.9869 102.333 34.0269L108.73 31.3806L108.513 30.8369ZM101.988 32.4319C101.933 30.5831 103.419 29.6406 104.489 29.6406C105.323 29.6406 106.03 30.0569 106.265 30.6556L101.988 32.4319Z" fill="white"/>
<path d="M50.4285 16.4762L51.4447 16.2125C51.5216 16.6044 51.7266 16.9962 52.0598 17.3881C52.3968 17.7799 52.8417 17.9759 53.3947 17.9759C53.9587 17.9759 54.4036 17.8311 54.7296 17.5419C55.0555 17.2526 55.2185 16.9029 55.2185 16.4926C55.2185 16.0496 55.0463 15.698 54.7021 15.438C54.3578 15.1744 53.8891 15.0425 53.2958 15.0425H52.785V14.1141C53.2757 14.1141 53.6511 14.0866 53.9111 14.0317C54.1711 13.9731 54.4 13.8285 54.5977 13.5977C54.7992 13.3634 54.8998 13.0979 54.8998 12.8012C54.8998 12.4497 54.7626 12.1439 54.4878 11.8839C54.2168 11.6239 53.8488 11.4939 53.3837 11.4939C52.9772 11.4939 52.6293 11.5964 52.3401 11.8015C52.0545 12.0029 51.8567 12.2721 51.7468 12.609C51.637 12.9422 51.582 13.1912 51.582 13.3561L50.5602 13.1254C50.813 11.4152 51.7577 10.5601 53.3947 10.5601C54.1821 10.5601 54.8065 10.7798 55.268 11.2192C55.7293 11.655 55.9601 12.1659 55.9601 12.7519C55.9601 13.5026 55.6048 14.0849 54.8943 14.4986C55.3046 14.6122 55.647 14.8447 55.9216 15.1962C56.2 15.5442 56.3391 15.9616 56.3391 16.4487C56.3391 17.1409 56.07 17.7214 55.5316 18.1901C54.997 18.6551 54.2865 18.8877 53.4002 18.8877C51.8768 18.8877 50.8862 18.0839 50.4285 16.4762ZM61.3488 18.0307C60.9826 18.342 60.6292 18.5617 60.2887 18.69C59.9517 18.8181 59.5892 18.8822 59.201 18.8822C58.5601 18.8822 58.0676 18.7266 57.7233 18.4152C57.3791 18.1004 57.207 17.6994 57.207 17.2122C57.207 16.9266 57.2711 16.6666 57.3992 16.4322C57.5311 16.1942 57.7013 16.0037 57.9101 15.861C58.1225 15.7181 58.3606 15.6101 58.6242 15.5369C58.8183 15.4856 59.1113 15.4361 59.5031 15.3885C60.3015 15.2934 60.8892 15.1799 61.2665 15.048C61.2701 14.9125 61.272 14.8264 61.272 14.7897C61.272 14.387 61.1786 14.1031 60.9918 13.9384C60.7391 13.715 60.3637 13.6032 59.8657 13.6032C59.4006 13.6032 59.0563 13.6856 58.833 13.8505C58.6132 14.0116 58.4503 14.2991 58.3441 14.7129L57.3773 14.5811C57.4652 14.1672 57.6098 13.834 57.8112 13.5812C58.0127 13.325 58.3038 13.129 58.6847 12.9935C59.0655 12.8544 59.5068 12.7847 60.0085 12.7847C60.5066 12.7847 60.9112 12.8434 61.2225 12.9606C61.5338 13.0777 61.7627 13.2261 61.9091 13.4055C62.0556 13.5812 62.1582 13.8047 62.2167 14.0757C62.2497 14.2441 62.2662 14.5481 62.2662 14.9875V16.3059C62.2662 17.2251 62.2863 17.8074 62.3266 18.0527C62.3706 18.2945 62.4548 18.527 62.5793 18.7504H61.5466C61.4441 18.5452 61.3781 18.3054 61.3488 18.0307ZM61.2665 15.8225C60.9076 15.969 60.3692 16.0935 59.6515 16.196C59.245 16.2546 58.9575 16.3206 58.789 16.3937C58.6206 16.467 58.4906 16.5751 58.399 16.7179C58.3075 16.8571 58.2617 17.0127 58.2617 17.1849C58.2617 17.4485 58.3606 17.6682 58.5583 17.844C58.7597 18.0197 59.0527 18.1076 59.4372 18.1076C59.8181 18.1076 60.1568 18.0252 60.4535 17.8605C60.7501 17.692 60.968 17.4631 61.1071 17.1739C61.2133 16.9505 61.2665 16.6209 61.2665 16.1851V15.8225ZM63.8098 12.9166H66.0895C66.6497 12.9166 67.0653 12.9642 67.3363 13.0595C67.6111 13.151 67.8455 13.3212 68.0395 13.5704C68.2372 13.8194 68.3361 14.1177 68.3361 14.4657C68.3361 14.744 68.2776 14.9875 68.1603 15.1962C68.0468 15.4014 67.8747 15.5735 67.644 15.7126C67.9187 15.8042 68.1457 15.9764 68.3252 16.229C68.5082 16.478 68.5998 16.7746 68.5998 17.1189C68.5632 17.6719 68.3655 18.082 68.0066 18.3494C67.6477 18.6167 67.1258 18.7504 66.441 18.7504H63.8098V12.9166ZM64.7986 15.3721H65.8532C66.2743 15.3721 66.5637 15.3501 66.7212 15.3061C66.8786 15.2622 67.0196 15.1744 67.1441 15.0425C67.2686 14.907 67.3308 14.7459 67.3308 14.5591C67.3308 14.2515 67.2211 14.0372 67.0013 13.9164C66.7852 13.7955 66.4136 13.7351 65.8862 13.7351H64.7986V15.3721ZM64.7986 17.9374H66.1005C66.6607 17.9374 67.0452 17.8732 67.254 17.7451C67.4627 17.6132 67.5726 17.3881 67.5836 17.0695C67.5836 16.8827 67.5232 16.7106 67.4023 16.5531C67.2815 16.392 67.124 16.2912 66.9298 16.251C66.7358 16.207 66.4245 16.1851 65.9961 16.1851H64.7986V17.9374ZM73.4557 18.0307C73.0896 18.342 72.7362 18.5617 72.3956 18.69C72.0587 18.8181 71.6961 18.8822 71.308 18.8822C70.6671 18.8822 70.1745 18.7266 69.8303 18.4152C69.4861 18.1004 69.314 17.6994 69.314 17.2122C69.314 16.9266 69.378 16.6666 69.5062 16.4322C69.638 16.1942 69.8083 16.0037 70.0171 15.861C70.2295 15.7181 70.4675 15.6101 70.7312 15.5369C70.9252 15.4856 71.2182 15.4361 71.6101 15.3885C72.4085 15.2934 72.9962 15.1799 73.3733 15.048C73.3771 14.9125 73.3788 14.8264 73.3788 14.7897C73.3788 14.387 73.2855 14.1031 73.0987 13.9384C72.8461 13.715 72.4707 13.6032 71.9726 13.6032C71.5076 13.6032 71.1633 13.6856 70.94 13.8505C70.7202 14.0116 70.5572 14.2991 70.451 14.7129L69.4842 14.5811C69.5721 14.1672 69.7167 13.834 69.9182 13.5812C70.1196 13.325 70.4107 13.129 70.7916 12.9935C71.1725 12.8544 71.6137 12.7847 72.1155 12.7847C72.6135 12.7847 73.0182 12.8434 73.3295 12.9606C73.6407 13.0777 73.8696 13.2261 74.0161 13.4055C74.1626 13.5812 74.2651 13.8047 74.3237 14.0757C74.3567 14.2441 74.3731 14.5481 74.3731 14.9875V16.3059C74.3731 17.2251 74.3932 17.8074 74.4336 18.0527C74.4775 18.2945 74.5617 18.527 74.6862 18.7504H73.6536C73.551 18.5452 73.4851 18.3054 73.4557 18.0307ZM73.3733 15.8225C73.0145 15.969 72.4762 16.0935 71.7583 16.196C71.3518 16.2546 71.0645 16.3206 70.896 16.3937C70.7275 16.467 70.5975 16.5751 70.506 16.7179C70.4143 16.8571 70.3686 17.0127 70.3686 17.1849C70.3686 17.4485 70.4675 17.6682 70.6652 17.844C70.8667 18.0197 71.1596 18.1076 71.5442 18.1076C71.925 18.1076 72.2637 18.0252 72.5603 17.8605C72.857 17.692 73.075 17.4631 73.2141 17.1739C73.3202 16.9505 73.3733 16.6209 73.3733 16.1851V15.8225ZM75.9167 12.9166H76.9055V15.3446H79.6466V12.9166H80.6353V18.7504H79.6466V16.1631H76.9055V18.7504H75.9167V12.9166ZM81.5966 12.9166H86.3372V13.7351H84.4586V18.7504H83.4753V13.7351H81.5966V12.9166ZM90.957 18.0307C90.5908 18.342 90.2373 18.5617 89.8968 18.69C89.5598 18.8181 89.1973 18.8822 88.8092 18.8822C88.1683 18.8822 87.6757 18.7266 87.3315 18.4152C86.9872 18.1004 86.8151 17.6994 86.8151 17.2122C86.8151 16.9266 86.8792 16.6666 87.0075 16.4322C87.1392 16.1942 87.3096 16.0037 87.5182 15.861C87.7307 15.7181 87.9687 15.6101 88.2323 15.5369C88.4265 15.4856 88.7195 15.4361 89.1113 15.3885C89.9096 15.2934 90.4973 15.1799 90.8746 15.048C90.8782 14.9125 90.8801 14.8264 90.8801 14.7897C90.8801 14.387 90.7867 14.1031 90.6 13.9384C90.3472 13.715 89.9718 13.6032 89.4738 13.6032C89.0087 13.6032 88.6645 13.6856 88.4411 13.8505C88.2213 14.0116 88.0585 14.2991 87.9522 14.7129L86.9855 14.5811C87.0733 14.1672 87.218 13.834 87.4193 13.5812C87.6208 13.325 87.912 13.129 88.2928 12.9935C88.6737 12.8544 89.115 12.7847 89.6167 12.7847C90.1147 12.7847 90.5193 12.8434 90.8307 12.9606C91.142 13.0777 91.3708 13.2261 91.5173 13.4055C91.6638 13.5812 91.7663 13.8047 91.825 14.0757C91.8578 14.2441 91.8743 14.5481 91.8743 14.9875V16.3059C91.8743 17.2251 91.8945 17.8074 91.9348 18.0527C91.9787 18.2945 92.063 18.527 92.1875 18.7504H91.1547C91.0522 18.5452 90.9863 18.3054 90.957 18.0307ZM90.8746 15.8225C90.5157 15.969 89.9773 16.0935 89.2596 16.196C88.8531 16.2546 88.5656 16.3206 88.3972 16.3937C88.2287 16.467 88.0987 16.5751 88.0072 16.7179C87.9156 16.8571 87.8698 17.0127 87.8698 17.1849C87.8698 17.4485 87.9687 17.6682 88.1665 17.844C88.3678 18.0197 88.6608 18.1076 89.0453 18.1076C89.4262 18.1076 89.765 18.0252 90.0616 17.8605C90.3582 17.692 90.5761 17.4631 90.7153 17.1739C90.8215 16.9505 90.8746 16.6209 90.8746 16.1851V15.8225ZM96.9391 12.9166V15.438C97.254 15.438 97.4756 15.3776 97.6037 15.2567C97.7318 15.1359 97.9187 14.7842 98.164 14.202C98.3947 13.649 98.6016 13.2956 98.7847 13.1419C98.9642 12.9917 99.2498 12.9166 99.6417 12.9166H100.004V13.7351L99.7351 13.7296C99.4713 13.7296 99.303 13.7681 99.2297 13.845C99.1528 13.9255 99.0356 14.1654 98.8781 14.5646C98.7317 14.9455 98.5962 15.2091 98.4716 15.3556C98.3471 15.5021 98.1531 15.6357 97.8893 15.7566C98.3178 15.8701 98.7353 16.2656 99.1418 16.9431L100.229 18.7504H99.1418L98.0816 16.9431C97.8656 16.5769 97.677 16.337 97.5158 16.2235C97.3547 16.11 97.1625 16.0532 96.9391 16.0532V18.7504H95.9283V16.0532C95.7086 16.0532 95.5182 16.11 95.357 16.2235C95.1958 16.3334 95.0073 16.5732 94.7912 16.9431L93.7311 18.7504H92.6433L93.7256 16.9431C94.1357 16.2656 94.555 15.8701 94.9835 15.7566C94.6905 15.6211 94.4855 15.4746 94.3682 15.3171C94.2511 15.156 94.0753 14.7751 93.841 14.1746C93.7603 13.9731 93.6743 13.8486 93.5827 13.801C93.4875 13.7534 93.3465 13.7296 93.1597 13.7296C93.1121 13.7296 93.0151 13.7315 92.8686 13.7351V12.9166H93.006C93.3868 12.9166 93.6541 12.9405 93.808 12.988C93.9655 13.032 94.1046 13.129 94.2255 13.2791C94.35 13.4256 94.5111 13.7332 94.7088 14.202C94.9505 14.777 95.1336 15.1267 95.2581 15.2512C95.3863 15.3757 95.6097 15.438 95.9283 15.438V12.9166H96.9391ZM100.938 12.9166H101.927V17.3661L104.668 12.9166H105.734V18.7504H104.745V14.3284L102.004 18.7504H100.938V12.9166ZM106.689 12.9166H111.43V13.7351H109.551V18.7504H108.568V13.7351H106.689V12.9166ZM112.375 12.9166H113.364V17.3661L116.105 12.9166H117.17V18.7504H116.182V14.3284L113.44 18.7504H112.375V12.9166ZM121.796 12.9166H124.075C124.636 12.9166 125.051 12.9642 125.322 13.0595C125.597 13.151 125.831 13.3212 126.025 13.5704C126.224 13.8194 126.322 14.1177 126.322 14.4657C126.322 14.744 126.264 14.9875 126.146 15.1962C126.032 15.4014 125.86 15.5735 125.63 15.7126C125.905 15.8042 126.131 15.9764 126.311 16.229C126.494 16.478 126.586 16.7746 126.586 17.1189C126.549 17.6719 126.351 18.082 125.992 18.3494C125.634 18.6167 125.111 18.7504 124.427 18.7504H121.796V12.9166ZM122.784 15.3721H123.839C124.26 15.3721 124.549 15.3501 124.707 15.3061C124.864 15.2622 125.005 15.1744 125.13 15.0425C125.255 14.907 125.316 14.7459 125.316 14.5591C125.316 14.2515 125.207 14.0372 124.987 13.9164C124.771 13.7955 124.399 13.7351 123.872 13.7351H122.784V15.3721ZM122.784 17.9374H124.086C124.647 17.9374 125.031 17.8732 125.24 17.7451C125.449 17.6132 125.559 17.3881 125.57 17.0695C125.57 16.8827 125.509 16.7106 125.389 16.5531C125.267 16.392 125.11 16.2912 124.916 16.251C124.722 16.207 124.41 16.1851 123.982 16.1851H122.784V17.9374Z" fill="white"/>
</svg>
