<svg width="167" height="30" viewBox="0 0 167 30" fill="none" xmlns="http://www.w3.org/2000/svg">
<path d="M45.512 17.176L46.168 17.624C45.8907 18.008 45.528 18.3173 45.08 18.552C44.632 18.7867 44.136 18.904 43.592 18.904C42.568 18.904 41.7147 18.5627 41.032 17.88C40.36 17.1973 40.024 16.3333 40.024 15.288C40.024 14.2533 40.36 13.3947 41.032 12.712C41.7147 12.0293 42.568 11.688 43.592 11.688C44.0827 11.688 44.552 11.7947 45 12.008C45.448 12.2107 45.8053 12.4933 46.072 12.856L45.4 13.368C45.208 13.112 44.9467 12.8987 44.616 12.728C44.296 12.5467 43.96 12.456 43.608 12.456C42.808 12.456 42.1573 12.7333 41.656 13.288C41.1547 13.8427 40.904 14.5093 40.904 15.288C40.904 16.0773 41.1493 16.7493 41.64 17.304C42.1307 17.8587 42.7813 18.136 43.592 18.136C44.3813 18.136 45.0213 17.816 45.512 17.176ZM37.32 15.352C37.32 13.6773 37.912 12.2533 39.096 11.08C40.2907 9.90667 41.7307 9.32 43.416 9.32C45.0907 9.32 46.52 9.90667 47.704 11.08C48.888 12.2533 49.48 13.6773 49.48 15.352C49.48 17.016 48.888 18.4347 47.704 19.608C46.52 20.7707 45.0907 21.352 43.416 21.352C41.7307 21.352 40.2907 20.7707 39.096 19.608C37.912 18.4347 37.32 17.016 37.32 15.352ZM38.104 15.352C38.104 16.8027 38.6213 18.0453 39.656 19.08C40.7013 20.104 41.9547 20.616 43.416 20.616C44.8773 20.616 46.12 20.104 47.144 19.08C48.1787 18.0453 48.696 16.8027 48.696 15.352C48.696 13.8907 48.1787 12.6427 47.144 11.608C46.12 10.5733 44.8773 10.056 43.416 10.056C41.9547 10.056 40.7013 10.5733 39.656 11.608C38.6213 12.6427 38.104 13.8907 38.104 15.352ZM61.6529 20.184V21H54.6769V20.04L59.1089 15.368C60.1329 14.2907 60.6449 13.3253 60.6449 12.472C60.6449 11.7893 60.4209 11.24 59.9729 10.824C59.5249 10.3973 58.9702 10.184 58.3089 10.184C57.7115 10.184 57.1942 10.3653 56.7569 10.728C56.3195 11.0907 56.0262 11.576 55.8769 12.184L54.9809 11.992C55.1622 11.224 55.5515 10.6053 56.1489 10.136C56.7569 9.656 57.4769 9.416 58.3089 9.416C59.2369 9.416 60.0102 9.688 60.6289 10.232C61.2582 10.7653 61.5729 11.496 61.5729 12.424C61.5729 13.0853 61.4129 13.6827 61.0929 14.216C60.7729 14.7387 60.2822 15.3467 59.6209 16.04L55.6529 20.184H61.6529ZM67.5764 9.416C68.131 9.416 68.6217 9.53333 69.0484 9.768C69.475 10.0027 69.8217 10.3067 70.0884 10.68C70.355 11.0533 70.5737 11.5067 70.7444 12.04C70.9257 12.5627 71.0484 13.096 71.1124 13.64C71.187 14.1733 71.2244 14.744 71.2244 15.352C71.2244 16.1093 71.1657 16.8187 71.0484 17.48C70.931 18.1413 70.739 18.7653 70.4724 19.352C70.2164 19.9387 69.8377 20.4027 69.3364 20.744C68.8457 21.0853 68.259 21.256 67.5764 21.256C66.8937 21.256 66.3017 21.0853 65.8004 20.744C65.3097 20.4027 64.931 19.9387 64.6644 19.352C64.4084 18.7653 64.2217 18.1467 64.1044 17.496C63.987 16.8347 63.9284 16.12 63.9284 15.352C63.9284 14.584 63.987 13.8693 64.1044 13.208C64.2217 12.5467 64.4084 11.9227 64.6644 11.336C64.931 10.7387 65.3097 10.2693 65.8004 9.928C66.3017 9.58667 66.8937 9.416 67.5764 9.416ZM68.9364 10.696C68.563 10.3653 68.1097 10.2 67.5764 10.2C67.043 10.2 66.5844 10.3653 66.2004 10.696C65.8164 11.0267 65.5284 11.464 65.3364 12.008C65.155 12.552 65.027 13.096 64.9524 13.64C64.8777 14.184 64.8404 14.7547 64.8404 15.352C64.8404 15.9493 64.8777 16.5147 64.9524 17.048C65.027 17.5813 65.155 18.1253 65.3364 18.68C65.5284 19.224 65.8164 19.6613 66.2004 19.992C66.5844 20.312 67.043 20.472 67.5764 20.472C68.1097 20.472 68.563 20.312 68.9364 19.992C69.3204 19.6613 69.603 19.224 69.7844 18.68C69.9764 18.136 70.1097 17.592 70.1844 17.048C70.2697 16.504 70.3124 15.9387 70.3124 15.352C70.3124 14.7547 70.2697 14.184 70.1844 13.64C70.1097 13.096 69.9764 12.552 69.7844 12.008C69.603 11.464 69.3204 11.0267 68.9364 10.696ZM80.0279 20.184V21H73.0519V20.04L77.4839 15.368C78.5079 14.2907 79.0199 13.3253 79.0199 12.472C79.0199 11.7893 78.7959 11.24 78.3479 10.824C77.8999 10.3973 77.3452 10.184 76.6839 10.184C76.0865 10.184 75.5692 10.3653 75.1319 10.728C74.6945 11.0907 74.4012 11.576 74.2519 12.184L73.3559 11.992C73.5372 11.224 73.9265 10.6053 74.5239 10.136C75.1319 9.656 75.8519 9.416 76.6839 9.416C77.6119 9.416 78.3852 9.688 79.0039 10.232C79.6332 10.7653 79.9479 11.496 79.9479 12.424C79.9479 13.0853 79.7879 13.6827 79.4679 14.216C79.1479 14.7387 78.6572 15.3467 77.9959 16.04L74.0279 20.184H80.0279ZM85.9514 9.416C86.506 9.416 86.9967 9.53333 87.4234 9.768C87.85 10.0027 88.1967 10.3067 88.4634 10.68C88.73 11.0533 88.9487 11.5067 89.1194 12.04C89.3007 12.5627 89.4234 13.096 89.4874 13.64C89.562 14.1733 89.5994 14.744 89.5994 15.352C89.5994 16.1093 89.5407 16.8187 89.4234 17.48C89.306 18.1413 89.114 18.7653 88.8474 19.352C88.5914 19.9387 88.2127 20.4027 87.7114 20.744C87.2207 21.0853 86.634 21.256 85.9514 21.256C85.2687 21.256 84.6767 21.0853 84.1754 20.744C83.6847 20.4027 83.306 19.9387 83.0394 19.352C82.7834 18.7653 82.5967 18.1467 82.4794 17.496C82.362 16.8347 82.3034 16.12 82.3034 15.352C82.3034 14.584 82.362 13.8693 82.4794 13.208C82.5967 12.5467 82.7834 11.9227 83.0394 11.336C83.306 10.7387 83.6847 10.2693 84.1754 9.928C84.6767 9.58667 85.2687 9.416 85.9514 9.416ZM87.3114 10.696C86.938 10.3653 86.4847 10.2 85.9514 10.2C85.418 10.2 84.9594 10.3653 84.5754 10.696C84.1914 11.0267 83.9034 11.464 83.7114 12.008C83.53 12.552 83.402 13.096 83.3274 13.64C83.2527 14.184 83.2154 14.7547 83.2154 15.352C83.2154 15.9493 83.2527 16.5147 83.3274 17.048C83.402 17.5813 83.53 18.1253 83.7114 18.68C83.9034 19.224 84.1914 19.6613 84.5754 19.992C84.9594 20.312 85.418 20.472 85.9514 20.472C86.4847 20.472 86.938 20.312 87.3114 19.992C87.6954 19.6613 87.978 19.224 88.1594 18.68C88.3514 18.136 88.4847 17.592 88.5594 17.048C88.6447 16.504 88.6874 15.9387 88.6874 15.352C88.6874 14.7547 88.6447 14.184 88.5594 13.64C88.4847 13.096 88.3514 12.552 88.1594 12.008C87.978 11.464 87.6954 11.0267 87.3114 10.696ZM95.7949 21V9.672H98.9469L101.891 17.72H101.939L104.851 9.672H108.019V21H106.019V11.896H105.987L102.547 21H101.139L97.7469 11.896H97.7149V21H95.7949ZM109.97 17.128C109.97 15.944 110.37 14.9787 111.17 14.232C111.97 13.4747 112.962 13.096 114.146 13.096C115.33 13.096 116.322 13.4747 117.122 14.232C117.922 14.9787 118.322 15.944 118.322 17.128C118.322 18.3227 117.916 19.304 117.106 20.072C116.306 20.84 115.319 21.224 114.146 21.224C112.972 21.224 111.98 20.84 111.17 20.072C110.37 19.304 109.97 18.3227 109.97 17.128ZM112.498 15.4C112.114 15.8907 111.922 16.4667 111.922 17.128C111.922 17.7893 112.114 18.3707 112.498 18.872C112.882 19.3733 113.431 19.624 114.146 19.624C114.86 19.624 115.41 19.3733 115.794 18.872C116.178 18.3707 116.37 17.7893 116.37 17.128C116.37 16.4667 116.178 15.8907 115.794 15.4C115.41 14.9093 114.86 14.664 114.146 14.664C113.431 14.664 112.882 14.9093 112.498 15.4ZM120.183 21V13.32H122.007V14.552H122.039C122.221 14.1467 122.525 13.8053 122.951 13.528C123.389 13.24 123.879 13.096 124.423 13.096C125.362 13.096 126.066 13.4 126.535 14.008C127.015 14.6053 127.255 15.336 127.255 16.2V21H125.335V16.744C125.335 15.3787 124.855 14.696 123.895 14.696C123.319 14.696 122.877 14.904 122.567 15.32C122.258 15.7253 122.103 16.2107 122.103 16.776V21H120.183ZM129.528 21V13.32H131.448V21H129.528ZM129.608 11.528C129.373 11.2933 129.256 11.0213 129.256 10.712C129.256 10.4027 129.373 10.136 129.608 9.912C129.842 9.67733 130.13 9.56 130.472 9.56C130.824 9.56 131.117 9.672 131.352 9.896C131.597 10.1093 131.72 10.3813 131.72 10.712C131.72 11.0427 131.597 11.32 131.352 11.544C131.117 11.7573 130.824 11.864 130.472 11.864C130.13 11.864 129.842 11.752 129.608 11.528ZM133.873 21V9.672H135.889V14.248H141.185V9.672H143.201V21H141.185V15.976H135.889V21H133.873ZM147.077 16.392H151.013C151.013 15.8587 150.858 15.416 150.549 15.064C150.24 14.712 149.792 14.536 149.205 14.536C148.64 14.536 148.154 14.712 147.749 15.064C147.344 15.416 147.12 15.8587 147.077 16.392ZM152.933 17.256C152.933 17.48 152.928 17.6507 152.917 17.768H147.077C147.12 18.3013 147.354 18.7493 147.781 19.112C148.208 19.4747 148.704 19.656 149.269 19.656C150.154 19.656 150.832 19.3253 151.301 18.664L152.581 19.688C151.824 20.712 150.725 21.224 149.285 21.224C148.08 21.224 147.088 20.8613 146.309 20.136C145.541 19.4107 145.157 18.4347 145.157 17.208C145.157 15.9813 145.541 14.9893 146.309 14.232C147.077 13.4747 148.048 13.096 149.221 13.096C150.33 13.096 151.226 13.4533 151.909 14.168C152.592 14.8827 152.933 15.912 152.933 17.256ZM159.467 21V20.024H159.419C159.227 20.3653 158.912 20.648 158.475 20.872C158.048 21.0853 157.568 21.192 157.035 21.192C156.299 21.192 155.632 21 155.035 20.616C154.448 20.2213 154.155 19.6187 154.155 18.808C154.155 18.3707 154.262 17.992 154.475 17.672C154.699 17.3413 154.976 17.0853 155.307 16.904C155.638 16.7227 156.048 16.5787 156.539 16.472C157.04 16.3547 157.51 16.28 157.947 16.248C158.395 16.216 158.891 16.2 159.435 16.2V16.008C159.435 15.56 159.27 15.2133 158.939 14.968C158.608 14.7227 158.187 14.6 157.675 14.6C156.864 14.6 156.166 14.8933 155.579 15.48L154.587 14.312C155.462 13.5013 156.544 13.096 157.835 13.096C158.496 13.096 159.056 13.192 159.515 13.384C159.984 13.5653 160.342 13.8213 160.587 14.152C160.832 14.472 161.003 14.8133 161.099 15.176C161.206 15.528 161.259 15.912 161.259 16.328V21H159.467ZM159.435 17.768V17.496H159.003C157.051 17.496 156.075 17.9227 156.075 18.776C156.075 19.1173 156.203 19.3627 156.459 19.512C156.726 19.6613 157.046 19.736 157.419 19.736C158.07 19.736 158.566 19.5653 158.907 19.224C159.259 18.872 159.435 18.3867 159.435 17.768ZM163.528 21V8.904H165.448V21H163.528Z" fill="#16395B"/>
<g clip-path="url(#clip0)">
<path d="M26 15.7926C25.9107 16.1998 24.3471 16.8785 23.945 17.1048L2.36771 29.7745C2.13075 29.92 1.85975 29.999 1.58263 30.0033C1.30551 30.0075 1.03229 29.9368 0.791093 29.7986C0.5499 29.6603 0.349459 29.4594 0.210412 29.2165C0.0713658 28.9737 -0.00125927 28.6977 1.65235e-05 28.417V18.0098L3.12716 17.9193C3.30586 17.9193 3.75259 17.4215 3.79727 17.2405L5.62888 12.1274C5.7629 11.7654 5.7629 11.6749 5.9416 12.0369L9.51548 20.0007C9.60483 20.1817 10.2303 20.9962 10.5876 19.865L12.7766 11.9012C12.8083 11.8321 12.855 11.7712 12.9132 11.7231C12.9715 11.6751 13.0398 11.641 13.1129 11.6236C13.1861 11.6061 13.2622 11.6058 13.3355 11.6225C13.4088 11.6392 13.4774 11.6726 13.5361 11.7202L17.8694 15.9283C18.0773 15.9509 18.287 15.9509 18.4949 15.9283L26 15.7926ZM2.94847 16.1998L5.31617 10.1817C5.34835 10.1029 5.40184 10.035 5.47049 9.98564C5.53914 9.93632 5.62014 9.90764 5.70418 9.90291C5.78821 9.89818 5.87186 9.9176 5.94548 9.95891C6.0191 10.0002 6.07969 10.0618 6.12029 10.1364L9.38146 16.4713C9.42575 16.5447 9.48976 16.6037 9.566 16.6416C9.64224 16.6794 9.72754 16.6945 9.81192 16.685C9.8963 16.6755 9.97627 16.6418 10.0424 16.5879C10.1086 16.5341 10.1583 16.4622 10.1856 16.3808L12.2406 10.3174C12.3473 10.1627 12.5014 10.0478 12.679 9.99054C12.8567 9.93329 13.048 9.93686 13.2234 10.0007L18.1821 14.6613C18.1998 14.6784 18.221 14.6914 18.2441 14.6992C18.2673 14.707 18.2919 14.7095 18.3162 14.7066L26 14.5708C25.8876 14.1747 25.6325 13.8356 25.2852 13.6206L2.36771 0.226946C2.13025 0.084347 1.85983 0.00777256 1.58379 0.00496301C1.30775 0.00215346 1.03586 0.0732084 0.79562 0.210945C0.555378 0.348683 0.355295 0.54822 0.215595 0.789387C0.0758949 1.03055 0.00152974 1.3048 1.65235e-05 1.58441V16.5165L2.54641 16.4713C2.63207 16.4699 2.71552 16.4435 2.78681 16.3954C2.85809 16.3472 2.91421 16.2793 2.94847 16.1998Z" fill="url(#paint0_linear)"/>
</g>
<defs>
<linearGradient id="paint0_linear" x1="-5.52163" y1="19.1636" x2="20.2885" y2="4.44965" gradientUnits="userSpaceOnUse">
<stop stop-color="#09B1E7"/>
<stop offset="1" stop-color="#29F499"/>
</linearGradient>
<clipPath id="clip0">
<rect width="26" height="30" fill="white"/>
</clipPath>
</defs>
</svg>
