<svg width="155" height="50" viewBox="0 0 155 50" fill="none" xmlns="http://www.w3.org/2000/svg">
<path d="M9.73091 23.6578C9.75258 23.6578 9.77377 23.6515 9.79186 23.6395C9.80995 23.6275 9.82415 23.6105 9.83268 23.5905L13.9832 13.8717C14.0082 13.8132 14.0493 13.7632 14.1017 13.7274C14.1541 13.6916 14.2156 13.6716 14.2789 13.6697C14.3423 13.6679 14.4048 13.6842 14.4592 13.7168C14.5136 13.7495 14.5576 13.797 14.5859 13.8539L20.5921 25.9093C20.6012 25.9276 20.6152 25.9431 20.6326 25.9538C20.65 25.9646 20.67 25.9703 20.6905 25.9703C20.7109 25.9703 20.7309 25.9646 20.7483 25.9538C20.7657 25.9431 20.7798 25.9276 20.7889 25.9093L24.145 19.1736C24.167 19.1293 24.2003 19.0915 24.2415 19.0642C24.2827 19.0368 24.3303 19.0208 24.3796 19.0177C24.4289 19.0147 24.4781 19.0246 24.5223 19.0466C24.5666 19.0687 24.6043 19.1019 24.6317 19.1432L27.5981 23.6084C27.6082 23.6236 27.6219 23.6361 27.6379 23.6447C27.654 23.6533 27.672 23.6578 27.6902 23.6578H38.8289C38.5696 22.9084 38.0484 22.2786 37.3619 21.8852L10.7946 6.49157C10.458 6.29653 10.0761 6.19385 9.68743 6.19385C9.29874 6.19385 8.9169 6.29653 8.58029 6.49157C8.24367 6.68661 7.96414 6.96714 7.7698 7.30496C7.57546 7.64278 7.47314 8.02599 7.47314 8.41607V23.6578H9.73091Z" fill="url(#paint0_linear)"/>
<path d="M26.5935 25.8801C26.5481 25.8801 26.5034 25.8689 26.4634 25.8474C26.4233 25.8259 26.3892 25.7948 26.364 25.7569L24.6363 23.156L20.9397 30.5752C20.9166 30.6216 20.881 30.6607 20.837 30.688C20.7929 30.7153 20.7422 30.7297 20.6905 30.7297C20.6387 30.7297 20.588 30.7153 20.544 30.688C20.5 30.6607 20.4644 30.6216 20.4412 30.5752L14.5271 18.7045C14.5177 18.6855 14.503 18.6696 14.4848 18.6587C14.4666 18.6478 14.4457 18.6424 14.4246 18.643C14.4034 18.6436 14.3829 18.6503 14.3654 18.6622C14.3479 18.6742 14.3342 18.6909 14.3258 18.7104L11.336 25.7118C11.3146 25.7617 11.2791 25.8043 11.2339 25.8342C11.1887 25.8641 11.1357 25.8801 11.0815 25.8801H7.47314V41.128C7.47315 41.5181 7.57547 41.9013 7.76981 42.2391C7.96416 42.5769 8.24369 42.8574 8.5803 43.0525C8.91691 43.2475 9.29875 43.3502 9.68744 43.3502C10.0761 43.3502 10.458 43.2475 10.7946 43.0525L37.3619 27.6588C38.0503 27.2643 38.5723 26.6322 38.8308 25.8801H26.5935Z" fill="url(#paint1_linear)"/>
<path d="M63.9221 15.9432H63.1916C62.821 15.9402 62.4597 16.0593 62.1632 16.2822C61.8809 16.4863 61.6586 16.763 61.5197 17.083L56.5603 29.4992L51.5911 17.0616C51.4351 16.7527 51.2082 16.4853 50.9291 16.2816C50.6415 16.0622 50.2903 15.9433 49.9291 15.9432H49.1704C48.9301 15.9384 48.6914 15.9838 48.4695 16.0766C48.2477 16.1695 48.0475 16.3077 47.8818 16.4824C47.7158 16.6494 47.5846 16.8479 47.4959 17.0664C47.4072 17.2848 47.3628 17.5189 47.3653 17.7547V31.5442C47.3638 31.7191 47.3979 31.8924 47.4655 32.0536C47.5332 32.2148 47.633 32.3604 47.7587 32.4815C48.0103 32.7336 48.3513 32.8752 48.7068 32.8752C49.0623 32.8752 49.4032 32.7336 49.6548 32.4815C49.7805 32.3604 49.8802 32.2148 49.9478 32.0536C50.0155 31.8924 50.0496 31.7191 50.0482 31.5442V19.9176L54.8072 31.7444C54.9515 32.0859 55.1948 32.3759 55.5055 32.5768C55.8237 32.7747 56.1913 32.8781 56.5657 32.8749C56.9401 32.8717 57.3059 32.7621 57.6207 32.5588C57.9211 32.3594 58.1538 32.073 58.2881 31.7376L63.0724 19.9103V31.5442C63.0748 31.8959 63.2157 32.2325 63.4644 32.4803C63.713 32.7282 64.0493 32.8673 64.3998 32.8673C64.7503 32.8673 65.0865 32.7282 65.3352 32.4803C65.5839 32.2325 65.7248 31.8959 65.7272 31.5442V17.7548C65.7297 17.5188 65.6852 17.2848 65.5965 17.0663C65.5078 16.8479 65.3765 16.6494 65.2104 16.4824C65.0448 16.3076 64.8447 16.1694 64.6229 16.0765C64.4011 15.9837 64.1624 15.9383 63.9221 15.9432Z" fill="#000105"/>
<path d="M74.6558 20.1731C73.8267 20.1341 72.9989 20.2725 72.2272 20.5791C71.4555 20.8857 70.7576 21.3534 70.1797 21.9513C69.6005 22.569 69.1505 23.297 68.8564 24.0922C68.5623 24.8874 68.43 25.7337 68.4674 26.581C68.4332 27.4268 68.5665 28.2709 68.8595 29.0646C69.1525 29.8583 69.5994 30.5859 70.1744 31.2051C70.7525 31.8046 71.4511 32.2736 72.2237 32.5812C72.9964 32.8888 73.8255 33.0278 74.6558 32.989C75.4896 33.0221 76.3211 32.8806 77.0974 32.5734C77.8737 32.2663 78.5778 31.8003 79.1648 31.2051C80.2925 29.9399 80.8847 28.2834 80.8158 26.5872C80.8653 25.7428 80.7442 24.897 80.4599 24.1007C80.1756 23.3043 79.7339 22.5738 79.1614 21.953C78.5745 21.3589 77.8708 20.8939 77.0951 20.5874C76.3195 20.281 75.4887 20.1399 74.6558 20.1731ZM74.6611 22.6681C74.6887 22.6676 74.7159 22.6676 74.7434 22.6676C75.5831 22.6426 76.3992 22.9489 77.0163 23.5209C77.4095 23.9166 77.7148 24.3913 77.9121 24.9139C78.1094 25.4364 78.1943 25.995 78.1611 26.5528C78.1995 27.1146 78.1175 27.6781 77.9206 28.2054C77.7237 28.7327 77.4165 29.2115 77.0197 29.6096C76.6922 29.9106 76.3059 30.1399 75.8854 30.283C75.0839 30.5634 74.2115 30.5632 73.4102 30.2825C72.9904 30.1452 72.6043 29.9205 72.277 29.6232C71.9198 29.2869 71.6425 28.8745 71.4655 28.4163C71.0455 27.2299 71.0451 25.9347 71.4644 24.7481C71.7006 24.1005 72.1401 23.5475 72.7166 23.1723C73.2932 22.7972 73.9756 22.6202 74.6611 22.6681Z" fill="#000105"/>
<path d="M91.6917 20.552C91.0353 20.2786 90.3282 20.1494 89.618 20.173C88.6823 20.1996 87.7709 20.4777 86.979 20.9784C86.5627 21.2521 86.1737 21.5654 85.8174 21.9141V21.6462C85.8222 21.4686 85.7913 21.2919 85.7267 21.1265C85.662 20.9611 85.5649 20.8105 85.4411 20.6836C85.3172 20.5567 85.1692 20.4561 85.0058 20.3877C84.8424 20.3194 84.667 20.2847 84.49 20.2858C84.3121 20.2817 84.1353 20.3151 83.9711 20.384C83.8069 20.4529 83.659 20.5557 83.5369 20.6857C83.4146 20.8132 83.3186 20.9637 83.2544 21.1285C83.1902 21.2933 83.159 21.4692 83.1626 21.6462V31.5441C83.1612 31.719 83.1953 31.8923 83.2629 32.0535C83.3306 32.2147 83.4303 32.3603 83.556 32.4814C83.6778 32.6061 83.8231 32.7052 83.9835 32.7728C84.1439 32.8404 84.3161 32.8752 84.49 32.8752C84.664 32.8752 84.8362 32.8404 84.9965 32.7728C85.1569 32.7052 85.3023 32.6061 85.424 32.4814C85.5496 32.3602 85.6492 32.2146 85.7169 32.0534C85.7845 31.8923 85.8187 31.719 85.8174 31.5441V24.7374C86.9172 23.3827 88.0962 22.6963 89.323 22.6963C89.6381 22.6642 89.9564 22.7051 90.2535 22.8156C90.5505 22.9262 90.8183 23.1036 91.0364 23.3342C91.4168 23.8784 91.6028 24.5356 91.5641 25.1993V31.5441C91.5665 31.8958 91.7074 32.2324 91.956 32.4802C92.2047 32.7281 92.541 32.8672 92.8915 32.8672C93.242 32.8672 93.5782 32.7281 93.8269 32.4802C94.0756 32.2324 94.2165 31.8958 94.2188 31.5441V24.9737C94.256 23.7586 93.8531 22.5713 93.0848 21.6315C92.7071 21.1712 92.2309 20.8023 91.6917 20.552Z" fill="#000105"/>
<path d="M98.6516 15.5484H98.5111C98.3216 15.5456 98.1335 15.5817 97.9584 15.6545C97.7834 15.7272 97.6249 15.835 97.4928 15.9714C97.3551 16.1084 97.2467 16.2723 97.1742 16.4528C97.1017 16.6334 97.0667 16.8269 97.0713 17.0215V17.1061C97.0663 17.2985 97.0993 17.4899 97.1685 17.6694C97.2376 17.8489 97.3415 18.0128 97.4742 18.1517C97.6076 18.2918 97.7688 18.4023 97.9474 18.4759C98.126 18.5496 98.3181 18.5848 98.5111 18.5792H98.6516C98.8454 18.583 99.0379 18.5475 99.2177 18.4749C99.3975 18.4022 99.5609 18.2938 99.6979 18.1562C99.835 18.0187 99.943 17.8548 100.015 17.6743C100.088 17.4939 100.123 17.3006 100.119 17.1061V17.0215C100.123 16.827 100.088 16.6337 100.015 16.4533C99.943 16.2728 99.835 16.1089 99.6979 15.9714C99.5609 15.8338 99.3975 15.7254 99.2177 15.6528C99.0379 15.5801 98.8454 15.5446 98.6516 15.5484Z" fill="#000105"/>
<path d="M98.5955 20.2859C98.4192 20.2821 98.2438 20.3134 98.0796 20.3778C97.9154 20.4423 97.7654 20.5387 97.6384 20.6615C97.5069 20.7884 97.4034 20.9416 97.3348 21.1113C97.2661 21.281 97.2338 21.4632 97.24 21.6462V31.5441C97.2385 31.719 97.2726 31.8924 97.3403 32.0536C97.4079 32.2147 97.5077 32.3604 97.6334 32.4815C97.7586 32.6095 97.9085 32.7105 98.0739 32.7784C98.2393 32.8463 98.4168 32.8796 98.5955 32.8763C98.7725 32.8813 98.9485 32.8477 99.1114 32.7779C99.2743 32.7081 99.4202 32.6037 99.539 32.4719C99.7717 32.2199 99.8991 31.8877 99.8948 31.5441V21.6462C99.9077 21.2863 99.778 20.9358 99.534 20.6716C99.4133 20.5448 99.2674 20.4449 99.1057 20.3784C98.944 20.3119 98.7701 20.2804 98.5955 20.2859Z" fill="#000105"/>
<path d="M114.685 16.3565C114.561 16.4809 114.463 16.6286 114.396 16.7911C114.329 16.9536 114.295 17.1277 114.296 17.3035V23.1622H106.133V17.3035C106.135 17.1217 106.1 16.9414 106.029 16.7742C105.958 16.607 105.853 16.4567 105.72 16.3329C105.596 16.208 105.449 16.1094 105.286 16.0429C105.124 15.9763 104.95 15.9431 104.774 15.9453C104.599 15.9475 104.426 15.9851 104.265 16.0557C104.104 16.1263 103.959 16.2286 103.839 16.3565C103.715 16.4809 103.617 16.6286 103.55 16.7911C103.483 16.9536 103.449 17.1277 103.45 17.3035V31.5441C103.448 31.719 103.482 31.8923 103.55 32.0535C103.618 32.2147 103.717 32.3603 103.843 32.4814C104.095 32.7332 104.436 32.8746 104.791 32.8746C105.147 32.8746 105.487 32.7332 105.739 32.4814C105.865 32.3602 105.964 32.2146 106.032 32.0534C106.1 31.8923 106.134 31.719 106.133 31.5441V25.7136H114.296V31.5441C114.298 31.8958 114.439 32.2324 114.688 32.4802C114.936 32.7281 115.273 32.8672 115.623 32.8672C115.974 32.8672 116.31 32.7281 116.559 32.4802C116.807 32.2324 116.948 31.8958 116.951 31.5441V17.3035C116.954 17.1241 116.92 16.9459 116.853 16.7798C116.785 16.6138 116.685 16.4632 116.557 16.3374C116.435 16.2116 116.289 16.112 116.127 16.0446C115.965 15.9772 115.792 15.9433 115.617 15.9451C115.442 15.9469 115.269 15.9843 115.109 16.055C114.949 16.1257 114.804 16.2283 114.685 16.3565Z" fill="#000105"/>
<path d="M125.514 20.1731C124.673 20.1331 123.835 20.2934 123.068 20.641C122.301 20.9886 121.627 21.5136 121.101 22.173C120.153 23.4415 119.666 24.9967 119.719 26.5811C119.719 28.6058 120.271 30.1963 121.361 31.3096C122.451 32.424 124 32.9891 125.963 32.9891C126.807 33.0009 127.648 32.9018 128.465 32.6941C128.77 32.5996 129.066 32.4806 129.351 32.3383C129.614 32.2063 129.91 32.0553 130.239 31.8854C130.446 31.7808 130.617 31.6181 130.732 31.4172C130.847 31.2162 130.901 30.986 130.887 30.7546C130.885 30.6077 130.853 30.4629 130.791 30.3295C130.73 30.1962 130.641 30.0774 130.531 29.9808C130.43 29.8741 130.307 29.7905 130.171 29.7356C130.036 29.6807 129.89 29.6558 129.743 29.6627C129.46 29.6849 129.185 29.7655 128.935 29.8996C128.026 30.2813 127.047 30.4647 126.062 30.4376C125.133 30.4937 124.218 30.1931 123.503 29.5967C122.948 29.0744 122.579 28.384 122.452 27.6313H129.953C130.131 27.6356 130.308 27.6023 130.472 27.5335C130.636 27.4647 130.784 27.3619 130.906 27.232C131.027 27.109 131.122 26.9632 131.186 26.8031C131.251 26.643 131.283 26.4717 131.281 26.2991C131.329 24.7403 130.805 23.218 129.807 22.0224C129.276 21.4099 128.614 20.9256 127.871 20.6054C127.128 20.2852 126.322 20.1374 125.514 20.1731ZM125.514 22.5272C126.249 22.5048 126.965 22.7623 127.519 23.248C128.139 23.7735 128.527 24.5227 128.601 25.3336H122.439C122.495 24.9397 122.614 24.5576 122.792 24.2022C123.024 23.68 123.409 23.2405 123.894 22.9416C124.38 22.6426 124.945 22.4981 125.514 22.5272Z" fill="#000105"/>
<path d="M138.244 20.173C136.824 20.1571 135.417 20.4431 134.115 21.0123C133.887 21.0758 133.687 21.2134 133.545 21.4034C133.404 21.5934 133.329 21.8251 133.332 22.0624C133.325 22.2388 133.352 22.415 133.414 22.5806C133.475 22.7461 133.569 22.8976 133.689 23.0262C133.843 23.1743 134.036 23.2761 134.244 23.3202C134.453 23.3644 134.67 23.3491 134.87 23.2761C137.295 22.5299 139.153 22.6128 139.978 23.3308C140.211 23.5832 140.389 23.8818 140.5 24.2073C140.611 24.5327 140.653 24.8779 140.623 25.2207H138.133C136.35 25.2145 134.95 25.5721 133.966 26.3233C133.512 26.662 133.147 27.1061 132.902 27.6177C132.657 28.1292 132.539 28.6928 132.56 29.26C132.544 29.7752 132.643 30.2875 132.849 30.7594C133.056 31.2313 133.365 31.6508 133.754 31.9874C134.551 32.6647 135.569 33.0216 136.613 32.9891C137.571 33.0221 138.523 32.822 139.388 32.4059C139.825 32.179 140.239 31.9104 140.625 31.6039C140.637 31.9364 140.778 32.251 141.017 32.4815C141.271 32.7323 141.613 32.8733 141.969 32.8741C142.325 32.875 142.668 32.7356 142.923 32.486C143.053 32.3667 143.158 32.2212 143.229 32.059C143.299 31.8967 143.336 31.7213 143.335 31.5441V24.9974C143.349 23.7802 142.901 22.6033 142.08 21.7065C141.59 21.1876 140.993 20.7818 140.33 20.517C139.668 20.2523 138.956 20.1349 138.244 20.173ZM140.624 27.4902V29.0366C140.23 29.4497 139.772 29.7968 139.269 30.0648C138.696 30.3848 138.051 30.552 137.396 30.5504C136.759 30.629 136.118 30.4509 135.612 30.0552C135.482 29.9151 135.382 29.7497 135.319 29.5692C135.255 29.3888 135.229 29.1971 135.242 29.0062C135.229 28.7609 135.296 28.518 135.432 28.314C135.568 28.1099 135.767 27.9558 135.998 27.8748C136.778 27.5851 137.608 27.4543 138.439 27.4902H140.624Z" fill="#000105"/>
<path d="M148.744 15.5906C148.486 15.3477 148.146 15.2121 147.792 15.2112C147.439 15.2102 147.098 15.344 146.839 15.5856C146.709 15.7079 146.607 15.8564 146.538 16.0212C146.469 16.186 146.436 16.3635 146.44 16.5421V31.5441C146.439 31.7189 146.473 31.8923 146.541 32.0535C146.608 32.2147 146.708 32.3603 146.834 32.4814C146.959 32.6094 147.109 32.7104 147.274 32.7783C147.44 32.8462 147.617 32.8795 147.796 32.8762C147.974 32.8804 148.15 32.847 148.314 32.7782C148.479 32.7094 148.626 32.6067 148.748 32.4769C148.869 32.3539 148.964 32.2082 149.029 32.0481C149.093 31.888 149.125 31.7167 149.123 31.5441V16.5421C149.128 16.3659 149.096 16.1907 149.031 16.0271C148.966 15.8635 148.868 15.715 148.744 15.5906Z" fill="#000105"/>
<defs>
<linearGradient id="paint0_linear" x1="7.47314" y1="16.0804" x2="38.8289" y2="16.0804" gradientUnits="userSpaceOnUse">
<stop stop-color="#09B1E7"/>
<stop offset="1" stop-color="#29F499"/>
</linearGradient>
<linearGradient id="paint1_linear" x1="430.802" y1="1397.23" x2="2207.09" y2="1397.23" gradientUnits="userSpaceOnUse">
<stop stop-color="#09B1E7"/>
<stop offset="1" stop-color="#29F499"/>
</linearGradient>
</defs>
</svg>
